<svg xmlns="http://www.w3.org/2000/svg" width="18" height="18"><g class="nc-icon-wrapper"><path d="M3.504 17H1.75a.75.75 0 0 1-.75-.75v-1.754a2.51 2.51 0 0 1 1.473-2.282.75.75 0 1 1 .618 1.366 1.008 1.008 0 0 0-.591.916V15.5h1.004c.394 0 .753-.232.916-.591a.75.75 0 0 1 1.366.618A2.51 2.51 0 0 1 3.504 17Z" data-color="color-2"/><path fill="currentColor" d="M13.775 10.712c3.636-3.994 3.236-8.497 3.175-9.006a.75.75 0 0 0-.657-.657c-.511-.063-5.011-.461-9.006 3.175l-1.013-.181a4.058 4.058 0 0 0-4.008 1.641L.388 8.336a.75.75 0 0 0 .88 1.135c.013-.005 1.068-.391 2.636-.329-.17.438-.291.825-.377 1.139a.75.75 0 0 0 .193.729l3.272 3.272a.749.749 0 0 0 .728.193c.313-.086.7-.207 1.137-.377.058 1.555-.324 2.625-.328 2.636a.749.749 0 0 0 1.134.879l2.654-1.88a4.05 4.05 0 0 0 1.639-4.003l-.182-1.016ZM11.25 5a1.75 1.75 0 1 1 0 3.5 1.75 1.75 0 0 1 0-3.5ZM2.7 7.668l.791-1.116A2.545 2.545 0 0 1 6.012 5.52l.034.006a13.205 13.205 0 0 0-1.477 2.173 10.426 10.426 0 0 0-1.868-.032Zm8.751 6.84-1.119.792c.048-.536.036-1.18-.032-1.868a13.205 13.205 0 0 0 2.173-1.477l.007.038a2.545 2.545 0 0 1-1.03 2.515Z"/></g></svg>